# xmcd CD database file
#
# Track frame offsets:
#	150
#	13583
#	25859
#	39832
#	53781
#	68722
#	86852
#	106302
#	129590
#	147057
#	164667
#	189809
#	206723
#	222529
#	233303
#	249398
#	269380
#
# Disc length: 3738 seconds
#
# Revision: 0
# Processed by: cddbd v1.5.2PL0 Copyright (c) Steve Scherf et al.
# Submitted via: CDex 1.51
#
DISCID=e70e9811
DTITLE=Maycon e Renato - Maycon and Renato Ao Vivo - Vol. 5
DYEAR=2007
DGENRE=Country
TTITLE0=Da boca pra fora
TTITLE1=Fogo de amor - Preciso te encontrar
TTITLE2=Rebola
TTITLE3=A dona do meu coração
TTITLE4=Você vai ver - Pingos de amor
TTITLE5=Tem nada a ver
TTITLE6=Telefone mudo - Fio de cabelo - Boate azul
TTITLE7=Te amar foi ilusão - Volta pra mim - Inevitável
TTITLE8=Cola em mim
TTITLE9=Sorrindo pra não chorar - Acidente de Amor
TTITLE10=Ladrão de mulher - Pagode em Brasília - Goiás é mais
TTITLE11=Coração de lua
TTITLE12=Bem aos olhos da lua
TTITLE13=Eu sou povão
TTITLE14=Evidências - No calor do seu corpo
TTITLE15=Vou beber de novo - Passe livre - Quebradas da noite - Do outro lado da cidade
TTITLE16=Chutando a solidão
EXTD=YEAR: 2007
EXTT0=
EXTT1=
EXTT2=
EXTT3=
EXTT4=
EXTT5=
EXTT6=
EXTT7=
EXTT8=
EXTT9=
EXTT10=
EXTT11=
EXTT12=
EXTT13=
EXTT14=
EXTT15=
EXTT16=
PLAYORDER=
